<?xml version="1.0" encoding="UTF-8"?>
<svg id="Layer_1" xmlns="http://www.w3.org/2000/svg" version="1.1" viewBox="0 0 138.01 43.44">
  <!-- Generator: Adobe Illustrator 30.2.0, SVG Export Plug-In . SVG Version: 2.1.1 Build 105)  -->
  <path d="M0,.9h26.26v8.12H9.14v8.65h14.99v7.4h-14.99v9.49h17.12v8.12H0V.9Z"/>
  <path d="M29.43,4.95c0-2.69,2.19-4.95,5-4.95s5.12,2.27,5.12,4.95-2.32,4.95-5.12,4.95-5-2.21-5-4.95ZM30.1,13.07h8.77v29.59h-8.77V13.07Z"/>
  <path d="M41.86,27.86c0-9.01,6.7-15.57,14.81-15.57,4.08,0,7.62,1.61,9.75,4.65V.9h8.77v41.77h-8.77v-3.88c-1.95,3.04-5.67,4.65-9.75,4.65-8.1,0-14.81-6.56-14.81-15.57ZM66.54,27.81c0-4.41-3.47-7.94-7.92-7.94s-7.86,3.52-7.86,7.99,3.47,7.99,7.86,7.99,7.92-3.58,7.92-8.06h0Z"/>
  <path d="M79.22,13.07h8.77v5.19c1.59-3.46,4.45-5.19,8.9-5.19h6.7v7.99h-7.37c-5.3,0-8.23,2.98-8.23,8.35v13.25h-8.77V13.07Z"/>
  <path d="M104.68,27.86c0-9.01,6.7-15.57,14.81-15.57,4.02,0,7.62,1.61,9.75,4.65v-3.88h8.77v29.59h-8.77v-3.88c-1.95,3.04-5.73,4.65-9.75,4.65-8.1,0-14.81-6.56-14.81-15.57h0ZM129.36,27.81c0-4.41-3.47-7.94-7.92-7.94s-7.86,3.52-7.86,7.99,3.47,7.99,7.86,7.99,7.92-3.58,7.92-8.06h0Z"/>
</svg>