<svg width="272" height="46" viewBox="0 0 272 46" fill="none" xmlns="http://www.w3.org/2000/svg">
<path d="M195.648 45.2145L190.362 39.9284C186.739 42.5418 182.284 44.0266 177.295 44.0266C165.001 44.0266 155.676 34.7611 155.676 22.5852C155.676 10.4686 165.001 1.14369 177.295 1.14369C189.709 1.14369 199.034 10.4686 199.034 22.5852C199.034 28.2277 197.074 33.2168 193.688 37.0181L198.796 42.126L195.648 45.2145ZM177.295 39.5126C180.978 39.5126 184.304 38.4435 186.977 36.5429L180.978 30.544L184.066 27.3961L190.243 33.5732C192.56 30.7222 193.985 26.8616 193.985 22.5852C193.985 12.9038 186.917 5.59829 177.295 5.59829C167.792 5.59829 160.724 12.9038 160.724 22.5852C160.724 32.2665 167.792 39.5126 177.295 39.5126ZM221.144 43.3733V32.0883H201.485V27.5743L220.728 1.79703H226.074V27.8119H232.726V32.0883H226.074V43.3733H221.144ZM206.652 27.8119H221.144V8.44923L206.652 27.8119ZM234.538 43.3733V39.869L250.099 23.5949C253.544 20.15 256.157 16.7645 256.157 12.9632C256.157 8.98378 252.831 5.4201 248.08 5.4201C242.734 5.4201 239.586 9.10257 239.111 14.1511H234.241C234.538 6.31102 240.299 1.0249 248.377 1.0249C256.157 1.0249 261.147 6.31102 261.147 12.785C261.147 18.1306 257.642 22.3476 253.425 26.8022L241.724 39.0969H262.037V43.3733H234.538Z" fill="black"/>
<path d="M0 0.895062H26.2641V9.01101H9.14027V17.6629H24.1314V25.0607H9.14027V34.547H26.2641V42.6629H0V0.895062Z" fill="black"/>
<path d="M29.4321 4.95306C29.4321 2.26799 31.6269 6.10352e-05 34.4283 6.10352e-05C37.2297 6.10352e-05 39.5457 2.26799 39.5457 4.95306C39.5457 7.63814 37.2297 9.90606 34.4283 9.90606C31.6269 9.90606 29.4321 7.69886 29.4321 4.95306ZM30.1008 13.0664H38.8744V42.6603H30.1008V13.0664Z" fill="black"/>
<path d="M41.8618 27.8646C41.8618 18.8536 48.5646 12.2901 56.6696 12.2901C60.7517 12.2901 64.2864 13.9006 66.4192 16.9448V0.895062H75.1927V42.6629H66.4192V38.7845C64.4698 41.8286 60.7517 43.4391 56.6696 43.4391C48.5646 43.4391 41.8618 36.8756 41.8618 27.8646ZM66.5405 27.8065C66.5405 23.3921 63.0677 19.8701 58.6189 19.8701C54.1701 19.8701 50.7594 23.3895 50.7594 27.8646C50.7594 32.3397 54.2322 35.8591 58.6189 35.8591C63.0057 35.8591 66.5405 32.279 66.5405 27.8039V27.8065Z" fill="black"/>
<path d="M79.2158 13.0664H87.9894V18.257C89.5748 14.7957 92.4382 13.0664 96.887 13.0664H103.59V21.0609H96.2156C90.9148 21.0609 87.9894 24.0443 87.9894 29.4144V42.6603H79.2158V13.0664Z" fill="black"/>
<path d="M104.684 27.8647C104.684 18.8537 111.387 12.2902 119.492 12.2902C123.515 12.2902 127.109 13.9007 129.242 16.9449V13.0664H138.015V42.6603H129.242V38.7819C127.292 41.826 123.515 43.4365 119.492 43.4365C111.387 43.4365 104.684 36.873 104.684 27.862V27.8647ZM129.363 27.8066C129.363 23.3922 125.89 19.8702 121.441 19.8702C116.993 19.8702 113.582 23.3896 113.582 27.8647C113.582 32.3398 117.055 35.8592 121.441 35.8592C125.828 35.8592 129.363 32.2791 129.363 27.804V27.8066Z" fill="black"/>
<circle cx="148.487" cy="38.2804" r="4.97816" fill="black"/>
</svg>
